<svg width="10" height="11" viewBox="0 0 10 11" fill="none" xmlns="http://www.w3.org/2000/svg">
<g clip-path="url(#clip0_25_405)">
<path d="M3.43755 6.31904C3.53026 6.31905 3.62089 6.29157 3.69798 6.24007C3.77507 6.18857 3.83516 6.11537 3.87065 6.02973C3.90614 5.94408 3.91544 5.84983 3.89736 5.7589C3.87929 5.66797 3.83466 5.58444 3.76911 5.51888C3.67979 5.43373 3.56111 5.38623 3.43771 5.38623C3.3143 5.38623 3.19562 5.43373 3.1063 5.51888C3.04077 5.58443 2.99615 5.66793 2.97806 5.75883C2.95998 5.84973 2.96925 5.94395 3.0047 6.02958C3.04015 6.11522 3.10019 6.18842 3.17724 6.23994C3.25428 6.29146 3.34487 6.31898 3.43755 6.31904ZM3.32708 5.73982C3.35638 5.71052 3.39612 5.69407 3.43755 5.69407C3.47898 5.69407 3.51872 5.71052 3.54802 5.73982C3.57731 5.76912 3.59377 5.80885 3.59377 5.85029C3.59377 5.89172 3.57731 5.93145 3.54802 5.96075C3.51827 5.9892 3.4787 6.00507 3.43755 6.00507C3.39639 6.00507 3.35683 5.9892 3.32708 5.96075C3.29779 5.93145 3.28133 5.89172 3.28133 5.85029C3.28133 5.80885 3.29779 5.76912 3.32708 5.73982Z" fill="#141416"/>
<path d="M3.76895 7.39388C3.67962 7.30873 3.56095 7.26123 3.43754 7.26123C3.31414 7.26123 3.19546 7.30873 3.10614 7.39388C3.04059 7.45944 2.99595 7.54296 2.97787 7.63389C2.95979 7.72481 2.96908 7.81906 3.00456 7.90471C3.04004 7.99036 3.10012 8.06356 3.17721 8.11506C3.25429 8.16657 3.34492 8.19406 3.43762 8.19406C3.53033 8.19406 3.62095 8.16657 3.69804 8.11506C3.77512 8.06356 3.8352 7.99036 3.87068 7.90471C3.90616 7.81906 3.91545 7.72481 3.89737 7.63389C3.87929 7.54296 3.8345 7.45944 3.76895 7.39388ZM3.54801 7.83575C3.51827 7.8642 3.4787 7.88007 3.43754 7.88007C3.39639 7.88007 3.35682 7.8642 3.32708 7.83575C3.31215 7.82134 3.30025 7.8041 3.29206 7.78504C3.28387 7.76597 3.27956 7.74547 3.27938 7.72472C3.2792 7.70398 3.28315 7.6834 3.29101 7.6642C3.29887 7.645 3.31047 7.62755 3.32514 7.61288C3.33981 7.59821 3.35726 7.58661 3.37646 7.57875C3.39566 7.57089 3.41623 7.56694 3.43698 7.56712C3.45773 7.5673 3.47823 7.57161 3.49729 7.5798C3.51636 7.58799 3.5336 7.59989 3.54801 7.61482C3.57731 7.64412 3.59376 7.68385 3.59376 7.72529C3.59376 7.76672 3.57731 7.80645 3.54801 7.83575Z" fill="#141416"/>
<path d="M4.6875 6.63147H2.1875C2.14606 6.63147 2.10632 6.64793 2.07701 6.67723C2.04771 6.70654 2.03125 6.74628 2.03125 6.78772C2.03125 6.82916 2.04771 6.8689 2.07701 6.89821C2.10632 6.92751 2.14606 6.94397 2.1875 6.94397H4.6875C4.72894 6.94397 4.76868 6.92751 4.79799 6.89821C4.82729 6.8689 4.84375 6.82916 4.84375 6.78772C4.84375 6.74628 4.82729 6.70654 4.79799 6.67723C4.76868 6.64793 4.72894 6.63147 4.6875 6.63147Z" fill="#141416"/>
<path d="M9.84378 2.10022C9.80234 2.10022 9.76259 2.11668 9.73329 2.14598C9.70399 2.17529 9.68753 2.21503 9.68753 2.25647V5.23709L5.24112 9.68506C5.2262 9.69948 5.21429 9.71672 5.20611 9.73578C5.19792 9.75484 5.19361 9.77535 5.19343 9.79609C5.19325 9.81684 5.1972 9.83742 5.20506 9.85662C5.21291 9.87582 5.22451 9.89327 5.23918 9.90794C5.25386 9.92261 5.2713 9.93421 5.2905 9.94207C5.30971 9.94992 5.33028 9.95388 5.35103 9.9537C5.37177 9.95352 5.39228 9.94921 5.41134 9.94102C5.4304 9.93283 5.44765 9.92092 5.46206 9.906L9.95425 5.41272C9.96881 5.39816 9.98036 5.38086 9.98821 5.36182C9.99607 5.34278 10.0001 5.32238 10 5.30178V2.25647C10 2.21503 9.98357 2.17529 9.95426 2.14598C9.92496 2.11668 9.88522 2.10022 9.84378 2.10022Z" fill="#141416"/>
<path d="M9.06253 4.91275V1.38369L9.95425 0.491972C9.98271 0.462502 9.99846 0.423033 9.9981 0.382065C9.99775 0.341097 9.98131 0.301907 9.95234 0.272937C9.92337 0.243967 9.88418 0.227535 9.84322 0.227179C9.80225 0.226823 9.76278 0.242572 9.73331 0.271034L8.84159 1.16275H5.31253C5.27109 1.16276 5.23135 1.17923 5.20206 1.20853L0.0458089 6.36478C0.0165166 6.39409 6.10352e-05 6.43382 6.10352e-05 6.47525C6.10352e-05 6.51669 0.0165166 6.55642 0.0458089 6.58572L3.63956 10.1795C3.66886 10.2088 3.7086 10.2252 3.75003 10.2252C3.79146 10.2252 3.8312 10.2088 3.8605 10.1795L9.01675 5.02322C9.04605 4.99393 9.06252 4.95419 9.06253 4.91275ZM3.75003 9.84807L0.377215 6.47525L5.37722 1.47525H8.52909L7.46143 2.54291C7.29947 2.43571 7.10346 2.39248 6.91143 2.42161C6.71939 2.45074 6.54502 2.55015 6.42213 2.70056C6.29924 2.85097 6.23659 3.04166 6.24633 3.23564C6.25608 3.42963 6.33752 3.61308 6.47486 3.75042C6.6122 3.88776 6.79565 3.9692 6.98964 3.97895C7.18362 3.98869 7.37431 3.92604 7.52472 3.80315C7.67514 3.68026 7.77455 3.50589 7.80367 3.31385C7.8328 3.12182 7.78957 2.92581 7.68237 2.76385L8.75003 1.69619V4.84807L3.75003 9.84807ZM7.50003 3.194C7.50003 3.28671 7.47254 3.37734 7.42103 3.45443C7.36952 3.53151 7.29631 3.59159 7.21066 3.62707C7.12501 3.66255 7.03076 3.67183 6.93983 3.65375C6.8489 3.63566 6.76538 3.59101 6.69982 3.52546C6.63427 3.4599 6.58962 3.37638 6.57153 3.28545C6.55345 3.19452 6.56273 3.10027 6.59821 3.01462C6.63369 2.92897 6.69377 2.85576 6.77085 2.80425C6.84794 2.75274 6.93857 2.72525 7.03128 2.72525C7.10088 2.72552 7.16953 2.74155 7.23206 2.77213L6.92081 3.08338C6.90589 3.09779 6.89398 3.11503 6.88579 3.1341C6.8776 3.15316 6.87329 3.17366 6.87311 3.19441C6.87293 3.21516 6.87689 3.23573 6.88474 3.25493C6.8926 3.27414 6.9042 3.29158 6.91887 3.30625C6.93354 3.32092 6.95099 3.33252 6.97019 3.34038C6.98939 3.34824 7.00997 3.35219 7.03072 3.35201C7.05146 3.35183 7.07197 3.34752 7.09103 3.33933C7.11009 3.33114 7.12733 3.31924 7.14175 3.30432L7.45315 2.99322C7.48373 3.05575 7.49976 3.1244 7.50003 3.194Z" fill="#141416"/>
</g>
<defs>
<clipPath id="clip0_25_405">
<rect width="10" height="10" fill="white" transform="translate(0 0.22522)"/>
</clipPath>
</defs>
</svg>
